<?xml version="1.0" encoding="utf-8"?>
<!-- Generator: Adobe Illustrator 26.2.1, SVG Export Plug-In . SVG Version: 6.00 Build 0)  -->
<svg version="1.1" id="Layer_1" xmlns="http://www.w3.org/2000/svg" xmlns:xlink="http://www.w3.org/1999/xlink" x="0px" y="0px"
	 viewBox="0 0 349.9 63.7" style="enable-background:new 0 0 349.9 63.7;" xml:space="preserve">
<style type="text/css">
	.st0{fill:#D92432;}
</style>
<g>
	<g>
		<path fill="#ffffff" class="st0" d="M10.7,8l5.7,17.8L22.1,8h8.1v25.6h-6.2v-6l0.6-12.2l-6.2,18.2h-4.1L8.2,15.4l0.6,12.3v6H2.6V8H10.7z"/>
		<path fill="#ffffff" class="st0" d="M47.4,26.8c0-0.9-0.3-1.6-1-2.1s-1.8-1-3.4-1.6s-2.9-1.1-3.9-1.6c-3.3-1.6-5-3.9-5-6.7c0-1.4,0.4-2.7,1.2-3.8
			s2-1.9,3.5-2.5s3.2-0.9,5.1-0.9c1.8,0,3.5,0.3,4.9,1s2.6,1.6,3.4,2.8s1.2,2.6,1.2,4.2h-6.2c0-1-0.3-1.9-1-2.4s-1.5-0.9-2.6-0.9
			c-1.1,0-2,0.2-2.6,0.7s-1,1.1-1,1.9c0,0.7,0.4,1.3,1.1,1.8s1.9,1.1,3.7,1.7s3.2,1.2,4.4,1.8c2.8,1.6,4.1,3.8,4.1,6.6
			c0,2.2-0.8,4-2.5,5.3S47,34,44.1,34c-2.1,0-4-0.4-5.6-1.1s-2.9-1.8-3.8-3.1s-1.3-2.8-1.3-4.5h6.2c0,1.4,0.4,2.4,1.1,3s1.9,1,3.5,1
			c1,0,1.8-0.2,2.4-0.7S47.4,27.6,47.4,26.8z"/>
		<path fill="#ffffff" class="st0" d="M77.4,25c-0.1,1.8-0.6,3.4-1.4,4.7s-2.1,2.4-3.7,3.2S68.9,34,66.8,34c-3.4,0-6-1.1-7.9-3.3S56,25.4,56,21.4
			v-1.3c0-2.5,0.4-4.7,1.3-6.6s2.1-3.3,3.8-4.4s3.5-1.5,5.7-1.5c3.1,0,5.6,0.8,7.5,2.5s3,3.9,3.2,6.8h-6.2c0-1.6-0.4-2.7-1.2-3.4
			s-1.9-1-3.4-1c-1.5,0-2.7,0.6-3.4,1.7s-1.1,3-1.1,5.5v1.8c0,2.7,0.3,4.7,1,5.9s1.9,1.8,3.5,1.8c1.4,0,2.5-0.3,3.3-1
			s1.1-1.7,1.2-3.2H77.4z"/>
		<path fill="#ffffff" d="M90.3,38.4h-1.8V8h1.8V38.4z"/>
		<path fill="#ffffff" d="M121,30.3c-0.9,1.2-2.1,2.2-3.7,2.8c-1.6,0.6-3.5,0.9-5.6,0.9c-2.1,0-4.1-0.5-5.7-1.5s-3-2.4-3.9-4.2
			c-0.9-1.8-1.4-3.9-1.4-6.3v-2.2c0-3.9,0.9-6.8,2.8-9c1.9-2.1,4.5-3.2,7.8-3.2c2.8,0,5,0.7,6.6,2s2.7,3.3,3.1,5.8h-3.5
			c-0.7-3.4-2.7-5.1-6.2-5.1c-2.3,0-4.1,0.8-5.3,2.4c-1.2,1.6-1.8,3.9-1.8,6.9v2.1c0,2.9,0.7,5.2,2,6.9c1.4,1.7,3.2,2.5,5.5,2.5
			c1.3,0,2.4-0.1,3.4-0.4c1-0.3,1.8-0.8,2.4-1.4v-5.7h-6.1v-2.8h9.6V30.3z"/>
		<path fill="#ffffff" d="M125.4,24c0-1.9,0.4-3.5,1.1-5c0.8-1.5,1.8-2.6,3.2-3.4c1.3-0.8,2.9-1.2,4.6-1.2c2.7,0,4.8,0.9,6.5,2.7
			c1.6,1.8,2.5,4.2,2.5,7.2v0.2c0,1.9-0.4,3.5-1.1,5c-0.7,1.5-1.8,2.6-3.1,3.4s-2.9,1.2-4.7,1.2c-2.7,0-4.8-0.9-6.5-2.7
			c-1.6-1.8-2.5-4.2-2.5-7.1V24z M128.7,24.3c0,2.1,0.5,3.8,1.5,5.1s2.4,1.9,4,1.9c1.7,0,3.1-0.6,4.1-1.9c1-1.3,1.5-3.1,1.5-5.4
			c0-2.1-0.5-3.8-1.5-5.1s-2.4-1.9-4.1-1.9c-1.7,0-3,0.6-4,1.9C129.2,20.1,128.7,22,128.7,24.3z"/>
		<path fill="#ffffff" d="M146.6,24c0-2.9,0.7-5.3,2.1-7s3.3-2.7,5.6-2.7c2.3,0,4.1,0.8,5.4,2.3V6.6h3.3v27H160l-0.2-2c-1.3,1.6-3.2,2.4-5.6,2.4
			c-2.3,0-4.1-0.9-5.5-2.7c-1.4-1.8-2.1-4.2-2.1-7.1V24z M149.9,24.3c0,2.2,0.5,3.8,1.4,5.1c0.9,1.2,2.2,1.8,3.8,1.8
			c2.1,0,3.7-0.9,4.7-2.8v-8.7c-1-1.8-2.5-2.7-4.6-2.7c-1.6,0-2.9,0.6-3.8,1.8C150.4,20.1,149.9,21.9,149.9,24.3z"/>
		<path fill="#ffffff" d="M167.5,24c0-2.9,0.7-5.3,2.1-7s3.3-2.7,5.6-2.7c2.3,0,4.1,0.8,5.4,2.3V6.6h3.3v27H181l-0.2-2c-1.3,1.6-3.2,2.4-5.6,2.4
			c-2.3,0-4.1-0.9-5.5-2.7c-1.4-1.8-2.1-4.2-2.1-7.1V24z M170.9,24.3c0,2.2,0.5,3.8,1.4,5.1c0.9,1.2,2.2,1.8,3.8,1.8
			c2.1,0,3.7-0.9,4.7-2.8v-8.7c-1-1.8-2.5-2.7-4.6-2.7c-1.6,0-2.9,0.6-3.8,1.8C171.3,20.1,170.9,21.9,170.9,24.3z"/>
		<path fill="#ffffff" d="M201.3,33.6c-0.2-0.4-0.4-1-0.5-2c-1.6,1.6-3.4,2.4-5.6,2.4c-1.9,0-3.5-0.5-4.8-1.6s-1.9-2.4-1.9-4c0-2,0.8-3.5,2.3-4.6
			c1.6-1.1,3.7-1.6,6.5-1.6h3.3v-1.5c0-1.1-0.4-2-1-2.7c-0.7-0.7-1.7-1-3.1-1c-1.2,0-2.2,0.3-3,0.9c-0.8,0.6-1.2,1.3-1.2,2.1h-3.4
			c0-0.9,0.3-1.9,1-2.8c0.7-0.9,1.6-1.6,2.8-2.1s2.5-0.8,3.9-0.8c2.3,0,4,0.5,5.3,1.6s1.9,2.6,2,4.5v8.8c0,1.7,0.2,3.1,0.7,4.2v0.3
			H201.3z M195.8,31.2c1.1,0,2-0.3,3-0.8s1.6-1.2,2-2.1v-3.9h-2.6c-4.1,0-6.2,1.2-6.2,3.5c0,1,0.3,1.8,1,2.4S194.7,31.2,195.8,31.2z
			"/>
		<path fill="#ffffff" d="M218.9,17.5c-0.5-0.1-1.1-0.1-1.6-0.1c-2.2,0-3.7,0.9-4.5,2.7v13.5h-3.3v-19h3.3l0.1,2.2c1.1-1.7,2.7-2.5,4.7-2.5
			c0.7,0,1.1,0.1,1.5,0.2V17.5z"/>
		<path fill="#ffffff" d="M220.8,24c0-2.9,0.7-5.3,2.1-7c1.4-1.8,3.3-2.7,5.6-2.7c2.3,0,4.1,0.8,5.4,2.3V6.6h3.3v27h-3.1l-0.2-2
			c-1.3,1.6-3.2,2.4-5.6,2.4c-2.3,0-4.1-0.9-5.5-2.7c-1.4-1.8-2.1-4.2-2.1-7.1V24z M224.1,24.3c0,2.2,0.5,3.8,1.4,5.1
			s2.2,1.8,3.8,1.8c2.1,0,3.7-0.9,4.7-2.8v-8.7c-1-1.8-2.5-2.7-4.6-2.7c-1.6,0-2.9,0.6-3.8,1.8S224.1,21.9,224.1,24.3z"/>
		<path fill="#ffffff" d="M271.7,30.3c-0.9,1.2-2.1,2.2-3.7,2.8s-3.5,0.9-5.6,0.9c-2.1,0-4.1-0.5-5.7-1.5s-3-2.4-3.9-4.2c-0.9-1.8-1.4-3.9-1.4-6.3
			v-2.2c0-3.9,0.9-6.8,2.8-9c1.9-2.1,4.5-3.2,7.8-3.2c2.8,0,5,0.7,6.6,2s2.7,3.3,3.1,5.8h-3.5c-0.7-3.4-2.7-5.1-6.2-5.1
			c-2.3,0-4.1,0.8-5.3,2.4c-1.2,1.6-1.8,3.9-1.8,6.9v2.1c0,2.9,0.7,5.2,2,6.9c1.4,1.7,3.2,2.5,5.5,2.5c1.3,0,2.4-0.1,3.4-0.4
			s1.8-0.8,2.4-1.4v-5.7h-6.1v-2.8h9.6V30.3z"/>
		<path fill="#ffffff" d="M286.4,17.5c-0.5-0.1-1.1-0.1-1.6-0.1c-2.2,0-3.7,0.9-4.5,2.7v13.5H277v-19h3.3l0.1,2.2c1.1-1.7,2.7-2.5,4.7-2.5
			c0.7,0,1.1,0.1,1.5,0.2V17.5z"/>
		<path fill="#ffffff" d="M288.3,24c0-1.9,0.4-3.5,1.1-5c0.8-1.5,1.8-2.6,3.2-3.4c1.3-0.8,2.9-1.2,4.6-1.2c2.7,0,4.8,0.9,6.5,2.7s2.5,4.2,2.5,7.2
			v0.2c0,1.9-0.4,3.5-1.1,5s-1.8,2.6-3.1,3.4c-1.4,0.8-2.9,1.2-4.7,1.2c-2.7,0-4.8-0.9-6.5-2.7s-2.5-4.2-2.5-7.1V24z M291.6,24.3
			c0,2.1,0.5,3.8,1.5,5.1s2.4,1.9,4,1.9c1.7,0,3.1-0.6,4.1-1.9s1.5-3.1,1.5-5.4c0-2.1-0.5-3.8-1.5-5.1c-1-1.3-2.4-1.9-4.1-1.9
			c-1.7,0-3,0.6-4,1.9S291.6,22,291.6,24.3z"/>
		<path fill="#ffffff" d="M322.4,31.8c-1.3,1.5-3.2,2.2-5.7,2.2c-2.1,0-3.7-0.6-4.8-1.8c-1.1-1.2-1.6-2.9-1.7-5.2V14.6h3.3v12.3
			c0,2.9,1.2,4.3,3.6,4.3c2.6,0,4.3-0.9,5.1-2.8V14.6h3.3v19h-3.2L322.4,31.8z"/>
		<path fill="#ffffff" d="M347.3,24.3c0,2.9-0.7,5.2-2,7S342,34,339.7,34c-2.4,0-4.2-0.7-5.6-2.2V41h-3.3V14.6h3.1l0.2,2.1c1.4-1.6,3.3-2.5,5.7-2.5
			c2.4,0,4.2,0.9,5.6,2.6s2.1,4.1,2.1,7.2V24.3z M343.9,24c0-2.1-0.5-3.8-1.4-5.1s-2.2-1.9-3.9-1.9c-2,0-3.5,0.9-4.6,2.6v9.1
			c1,1.7,2.5,2.6,4.6,2.6c1.6,0,2.9-0.6,3.8-1.9C343.5,28.2,343.9,26.4,343.9,24z"/>
	</g>
	<g>
		<path fill="#ffffff" d="M6.9,47.7c0.7,1.4,1.3,2.7,1.8,3.8c0.7,1.3,1.2,2.4,1.6,3.3c0.4,0.9,0.8,1.7,1.3,2.6c1.3-2.2,2.9-5.4,4.7-9.6l3.9,0
			c0.1,0,0.2,0.1,0.2,0.2c0,0.1-0.1,0.2-0.2,0.2c-0.7,0.1-1.2,0.2-1.4,0.4s-0.4,0.6-0.4,1.1s-0.1,1.5-0.2,2.9S18.2,55,18.2,56
			c0,1.8,0,2.8,0,3.1s0.1,0.5,0.3,0.7s0.6,0.3,1.1,0.4c0.2,0,0.2,0.1,0.2,0.2s-0.1,0.1-0.3,0.1l-3.8,0h-1c-0.2,0-0.3-0.1-0.3-0.2
			c0-0.1,0.1-0.1,0.2-0.2c0.5-0.1,0.9-0.2,1.1-0.3s0.3-0.4,0.4-0.7c0.1-0.3,0.1-1.2,0.1-2.5l0.2-4.7l0.1-2.3c0-0.2,0-0.3-0.1-0.3
			c-0.1,0-0.1,0.1-0.2,0.2l-1.9,3.8c-1.2,2.4-2,4-2.3,4.7l-0.6,1.5c-0.2,0.4-0.3,0.7-0.3,0.7s-0.1,0.1-0.1,0.1
			c-0.1,0-0.1-0.1-0.2-0.3c-0.1-0.4-0.7-1.7-1.8-3.9c-0.6-1.2-1.2-2.6-2-4.2c-0.8-1.6-1.2-2.4-1.3-2.4c-0.1-0.1-0.1-0.1-0.1-0.1
			c-0.1,0-0.1,0.1-0.1,0.2l-0.1,5.9l0,2c0,1,0.1,1.7,0.4,2s0.7,0.5,1.2,0.5c0.3,0,0.5,0.1,0.5,0.2c0,0.1-0.1,0.2-0.2,0.2l-0.2,0
			l-0.6,0l-1.4,0c-0.6,0-1.4,0-2.3,0.1c-0.1-0.1-0.1-0.1-0.1-0.2c0-0.1,0.1-0.2,0.3-0.2c0.7,0,1.1-0.2,1.4-0.6s0.5-1.3,0.5-2.8
			l0-1.7L5,50.8c0-1-0.1-1.7-0.4-2.1S3.8,48.1,3.2,48c-0.2,0-0.4-0.1-0.4-0.2c0-0.1,0.1-0.2,0.3-0.2c0.1,0,0.2,0,0.4,0L6.9,47.7z"/>
		<path fill="#ffffff" d="M26.7,59.3c-0.3,0.5-0.7,0.8-1.1,1s-0.9,0.3-1.5,0.3c-0.7,0-1.2-0.2-1.5-0.5c-0.4-0.4-0.6-0.8-0.6-1.4
			c0-0.4,0.1-0.8,0.3-1.2s0.5-0.6,0.8-0.8c0.3-0.2,0.8-0.4,1.5-0.6c1-0.3,1.7-0.6,1.9-0.9c0.2-0.2,0.3-0.5,0.3-0.9
			c0-0.6-0.1-1-0.4-1.4c-0.3-0.3-0.7-0.5-1.2-0.5c-0.4,0-0.7,0.1-0.9,0.3c-0.2,0.2-0.4,0.6-0.5,1.1c-0.1,0.6-0.4,0.9-0.8,0.9
			c-0.1,0-0.3-0.1-0.5-0.2s-0.3-0.4-0.3-0.6c0-0.5,0.3-0.9,0.8-1.3s1.3-0.5,2.2-0.5c0.7,0,1.3,0.1,1.8,0.3s0.7,0.5,0.8,0.7
			c0.1,0.3,0.2,0.8,0.2,1.6L28,57.3c0,1,0.1,1.7,0.2,2.1c0.1,0.4,0.3,0.6,0.7,0.6c0.1,0,0.2,0,0.3,0l0.2,0c0.1,0,0.2,0.1,0.2,0.2
			c0,0.2-0.6,0.4-1.9,0.4c-0.4,0-0.6-0.1-0.7-0.3S26.7,59.8,26.7,59.3z M26.7,55.4c-0.2,0.3-0.6,0.6-1.3,0.9c-0.7,0.4-1.2,0.7-1.5,1
			c-0.3,0.3-0.4,0.7-0.4,1.2c0,0.4,0.1,0.8,0.4,1s0.5,0.4,0.9,0.4c0.4,0,0.7-0.1,1.1-0.3s0.6-0.5,0.7-0.9s0.2-0.9,0.2-1.6
			C26.7,56.7,26.7,56.1,26.7,55.4z"/>
		<path fill="#ffffff" d="M33.2,53c-0.1,1.4-0.1,2.9-0.1,4.2c0,1.1,0.1,1.8,0.4,2.1c0.3,0.3,0.6,0.5,1.1,0.5c0.3,0,0.7-0.1,1.1-0.4
			c0.2-0.1,0.2-0.1,0.3-0.1c0.1,0,0.1,0,0.1,0.1c0,0.2-0.2,0.4-0.7,0.7s-1,0.5-1.7,0.5c-0.7,0-1.2-0.2-1.5-0.7s-0.5-1.2-0.5-2.1
			c0-1,0.1-2.6,0.2-4.9c0,0-0.4,0-0.9-0.1l-0.6,0c-0.1,0-0.2-0.1-0.2-0.1c0-0.1,0.1-0.2,0.2-0.2c0.3-0.1,0.7-0.4,1.3-0.9
			s1-1.1,1.1-2c0-0.2,0.1-0.3,0.2-0.3s0.2,0.1,0.2,0.3c0,0.1,0,0.1,0,0.2c0,0.3,0,0.5,0,0.9l0,1.5l2.1,0c0.4,0,0.6,0,0.6,0.1
			c0,0.3-0.1,0.5-0.1,0.6C35.4,52.9,34.5,52.9,33.2,53z"/>
		<path fill="#ffffff" d="M38.8,55.9c0,0.3,0,0.6,0,0.8c0,0.9,0.3,1.7,0.8,2.3c0.5,0.6,1.2,1,2,1c0.8,0,1.5-0.3,2.2-0.9c0.2-0.2,0.3-0.3,0.4-0.3
			c0.1,0,0.2,0.1,0.2,0.3c-0.2,0.5-0.7,0.8-1.3,1.2s-1.3,0.5-2,0.5c-1.1,0-2-0.4-2.7-1.2c-0.7-0.8-1.1-1.8-1.1-3
			c0-1.3,0.4-2.3,1.2-3.2s1.7-1.3,2.6-1.3c0.9,0,1.7,0.3,2.4,1s1.1,1.5,1.1,2.3c0,0.1,0,0.2-0.1,0.3s-0.3,0.1-0.7,0.1L38.8,55.9z
			 M38.8,55.4c0.8,0,1.7,0.1,2.5,0.1l0.5,0c0.4,0,0.7-0.1,0.9-0.2c0.2-0.1,0.3-0.4,0.3-0.7c0-0.5-0.2-1-0.6-1.4
			c-0.4-0.4-0.8-0.6-1.3-0.6c-0.5,0-0.9,0.2-1.4,0.7C39.2,53.6,38.9,54.4,38.8,55.4z"/>
		<path fill="#ffffff" d="M48.6,54.3c0.4-0.7,0.8-1.3,1.3-1.6c0.5-0.4,1-0.5,1.5-0.5c0.4,0,0.7,0.1,0.9,0.4s0.4,0.5,0.4,0.9c0,0.6-0.3,0.9-0.8,0.9
			c-0.2,0-0.5-0.2-0.6-0.5c-0.2-0.4-0.5-0.7-0.8-0.7c-0.3,0-0.7,0.2-1,0.5c-0.3,0.4-0.6,0.8-0.7,1.2s-0.2,1.3-0.2,2.7
			c0,1.3,0.1,2,0.2,2.2s0.4,0.3,0.8,0.4c0.1,0,0.2,0.1,0.2,0.1c0,0.1-0.2,0.2-0.5,0.2h-3.1c-0.2,0-0.3-0.1-0.3-0.2
			c0-0.1,0.1-0.2,0.4-0.2c0.4,0,0.7-0.2,0.8-0.4c0.1-0.2,0.1-1.1,0.1-2.5c0-2.1,0-3.4-0.1-3.8s-0.4-0.7-1-0.7
			c-0.2,0-0.4-0.1-0.4-0.2c0-0.1,0-0.1,0.1-0.1s0.3-0.1,0.9-0.1l1.8-0.1C48.5,52.6,48.6,53.3,48.6,54.3z"/>
		<path fill="#ffffff" d="M56.7,52.1l0,2.2l0,2.1v1.5l0,1.2c0,0.5,0.1,0.8,0.2,0.9s0.4,0.2,0.7,0.2c0.4,0,0.5,0.1,0.5,0.2c0,0.1-0.1,0.2-0.2,0.2
			c-0.1,0-0.1,0-0.2,0c-0.6-0.1-1.2-0.1-1.7-0.1c-0.8,0-1.4,0-1.7,0.1c-0.1,0-0.1,0-0.2,0c-0.2,0-0.2-0.1-0.2-0.2s0.2-0.2,0.5-0.2
			s0.6-0.1,0.7-0.2s0.2-0.4,0.2-1l0.1-4c0-1.1-0.1-1.7-0.2-1.9s-0.5-0.3-0.9-0.3c-0.2,0-0.2-0.1-0.2-0.2c0-0.1,0-0.1,0.1-0.1
			s0.4-0.1,1.2-0.1S56.4,52.1,56.7,52.1z M55.6,47.3c0.2,0,0.5,0.1,0.7,0.3s0.3,0.4,0.3,0.6c0,0.3-0.1,0.5-0.2,0.7s-0.4,0.3-0.7,0.3
			c-0.2,0-0.5-0.1-0.7-0.2s-0.3-0.4-0.3-0.6c0-0.3,0.1-0.5,0.2-0.7S55.4,47.3,55.6,47.3z"/>
		<path fill="#ffffff" d="M64.4,59.3c-0.3,0.5-0.7,0.8-1.1,1s-0.9,0.3-1.5,0.3c-0.7,0-1.2-0.2-1.5-0.5c-0.4-0.4-0.6-0.8-0.6-1.4
			c0-0.4,0.1-0.8,0.3-1.2s0.5-0.6,0.8-0.8c0.3-0.2,0.8-0.4,1.5-0.6c1-0.3,1.7-0.6,1.9-0.9c0.2-0.2,0.3-0.5,0.3-0.9
			c0-0.6-0.1-1-0.4-1.4c-0.3-0.3-0.7-0.5-1.2-0.5c-0.4,0-0.7,0.1-0.9,0.3c-0.2,0.2-0.4,0.6-0.5,1.1c-0.1,0.6-0.4,0.9-0.8,0.9
			c-0.1,0-0.3-0.1-0.5-0.2S60,54.2,60,53.9c0-0.5,0.3-0.9,0.8-1.3s1.3-0.5,2.2-0.5c0.7,0,1.3,0.1,1.8,0.3s0.7,0.5,0.8,0.7
			c0.1,0.3,0.2,0.8,0.2,1.6l-0.1,2.6c0,1,0.1,1.7,0.2,2.1c0.1,0.4,0.3,0.6,0.7,0.6c0.1,0,0.2,0,0.3,0l0.2,0c0.1,0,0.2,0.1,0.2,0.2
			c0,0.2-0.6,0.4-1.9,0.4c-0.4,0-0.6-0.1-0.7-0.3S64.4,59.8,64.4,59.3z M64.4,55.4c-0.2,0.3-0.6,0.6-1.3,0.9c-0.7,0.4-1.2,0.7-1.5,1
			c-0.3,0.3-0.4,0.7-0.4,1.2c0,0.4,0.1,0.8,0.4,1S62,60,62.4,60c0.4,0,0.7-0.1,1.1-0.3s0.6-0.5,0.7-0.9s0.2-0.9,0.2-1.6
			C64.4,56.7,64.4,56.1,64.4,55.4z"/>
		<path fill="#ffffff" d="M71.1,47.1c0,0.8,0,1.6,0,2.5l0,6.1l0,2.9c0,0.6,0.1,1,0.2,1.2c0.2,0.2,0.5,0.4,1,0.4c0.2,0,0.3,0.1,0.3,0.2
			c0,0.1-0.1,0.2-0.3,0.2c0,0-0.1,0-0.2,0c-0.7-0.1-1.5-0.1-2.4-0.1c-0.6,0-1,0-1.4,0.1c-0.1,0-0.1,0-0.2,0c-0.2,0-0.3-0.1-0.3-0.2
			c0-0.1,0.1-0.2,0.3-0.2c0.6,0,1-0.2,1.2-0.5s0.3-0.9,0.3-1.7l0-5.6c0-1.8,0-2.9-0.1-3.2s-0.2-0.6-0.4-0.9s-0.5-0.4-1-0.4
			c-0.3,0-0.4-0.1-0.4-0.2c0-0.1,0.1-0.2,0.3-0.2c1.2-0.1,2.1-0.2,2.7-0.4H71.1z"/>
		<path fill="#ffffff" d="M80.4,57.9c0,0.8-0.3,1.4-0.8,1.9c-0.6,0.5-1.2,0.8-2,0.8c-0.5,0-1-0.1-1.6-0.4c-0.3-0.2-0.5-0.2-0.6-0.2
			c-0.1,0-0.2,0.1-0.3,0.2c-0.1,0.2-0.2,0.3-0.3,0.3c-0.1,0-0.1-0.1-0.1-0.3c0-0.2,0-0.6,0-1.3c0-0.6,0-0.9,0-1.1
			c0-0.2,0.1-0.4,0.2-0.4c0.1,0,0.1,0.1,0.2,0.2c0.3,0.7,0.6,1.4,1.1,1.9s1,0.8,1.6,0.8c0.4,0,0.8-0.1,1.2-0.4
			c0.3-0.3,0.5-0.6,0.5-1.1c0-0.7-0.6-1.4-1.9-1.9c-0.9-0.4-1.4-0.7-1.7-0.8c-0.3-0.2-0.5-0.4-0.7-0.7c-0.2-0.3-0.2-0.6-0.2-1
			c0-0.7,0.3-1.2,0.8-1.7c0.5-0.5,1.1-0.7,1.8-0.7c0.5,0,1.1,0.2,1.8,0.5c0.1,0.1,0.2,0.1,0.3,0.1c0.1,0,0.1-0.1,0.2-0.2
			c0.1-0.1,0.1-0.2,0.2-0.2c0.1,0,0.1,0,0.1,0.1c0,0,0.1,0.3,0.1,0.9c0,0.5,0.1,1,0.1,1.3c0,0.2-0.1,0.3-0.2,0.3
			c-0.1,0-0.2-0.1-0.2-0.3c-0.1-0.2-0.2-0.5-0.5-1c-0.3-0.5-0.5-0.8-0.9-0.9c-0.3-0.1-0.6-0.2-0.9-0.2c-0.5,0-0.9,0.1-1.2,0.3
			s-0.4,0.5-0.4,0.9c0,0.2,0.1,0.4,0.2,0.6c0.1,0.2,0.2,0.3,0.3,0.4s0.7,0.4,1.9,0.9c0.7,0.3,1.2,0.6,1.4,0.7
			c0.2,0.2,0.4,0.4,0.6,0.7C80.3,57.3,80.4,57.6,80.4,57.9z"/>
		<path fill="#ffffff" d="M92.4,59.3c-0.3,0.5-0.7,0.8-1.1,1s-0.9,0.3-1.5,0.3c-0.7,0-1.2-0.2-1.5-0.5c-0.4-0.4-0.6-0.8-0.6-1.4
			c0-0.4,0.1-0.8,0.3-1.2s0.5-0.6,0.8-0.8c0.3-0.2,0.8-0.4,1.5-0.6c1-0.3,1.7-0.6,1.9-0.9c0.2-0.2,0.3-0.5,0.3-0.9
			c0-0.6-0.1-1-0.4-1.4c-0.3-0.3-0.7-0.5-1.2-0.5c-0.4,0-0.7,0.1-0.9,0.3c-0.2,0.2-0.4,0.6-0.5,1.1c-0.1,0.6-0.4,0.9-0.8,0.9
			c-0.1,0-0.3-0.1-0.5-0.2S88,54.2,88,53.9c0-0.5,0.3-0.9,0.8-1.3s1.3-0.5,2.2-0.5c0.7,0,1.3,0.1,1.8,0.3s0.7,0.5,0.8,0.7
			c0.1,0.3,0.2,0.8,0.2,1.6l-0.1,2.6c0,1,0.1,1.7,0.2,2.1c0.1,0.4,0.3,0.6,0.7,0.6c0.1,0,0.2,0,0.3,0l0.2,0c0.1,0,0.2,0.1,0.2,0.2
			c0,0.2-0.6,0.4-1.9,0.4c-0.4,0-0.6-0.1-0.7-0.3S92.4,59.8,92.4,59.3z M92.4,55.4c-0.2,0.3-0.6,0.6-1.3,0.9c-0.7,0.4-1.2,0.7-1.5,1
			c-0.3,0.3-0.4,0.7-0.4,1.2c0,0.4,0.1,0.8,0.4,1s0.5,0.4,0.9,0.4c0.4,0,0.7-0.1,1.1-0.3s0.6-0.5,0.7-0.9s0.2-0.9,0.2-1.6
			C92.5,56.7,92.4,56.1,92.4,55.4z"/>
		<path fill="#ffffff" d="M98.7,52.1c0.2,0.4,0.3,1,0.3,1.9c0.4-0.6,0.9-1.1,1.3-1.4s1-0.5,1.6-0.5c0.4,0,0.9,0.1,1.3,0.2c0.4,0.2,0.7,0.5,1,0.9
			c0.2,0.4,0.3,1.1,0.3,2.1l-0.1,3.3c0,0.6,0.1,1,0.2,1.1s0.3,0.3,0.6,0.4c0.2,0.1,0.3,0.1,0.3,0.2c0,0.1-0.1,0.1-0.2,0.1
			c0,0-0.1,0-0.1,0c-0.3-0.1-0.7-0.1-1.3-0.1c-0.5,0-1.1,0-1.7,0.1c-0.2,0-0.4-0.1-0.4-0.2c0-0.1,0.1-0.1,0.2-0.2
			c0.4-0.1,0.6-0.2,0.7-0.2s0.2-0.2,0.2-0.3c0-0.1,0.1-0.6,0.1-1.4c0-0.8,0-1.5,0-2c0-1.4-0.2-2.3-0.5-2.7s-0.8-0.7-1.3-0.7
			c-0.8,0-1.4,0.4-1.9,1.2s-0.8,2.2-0.8,4.1c0,0.9,0.1,1.4,0.2,1.7s0.4,0.4,0.9,0.4c0.1,0,0.2,0.1,0.2,0.2c0,0.1-0.1,0.1-0.2,0.1
			l-0.5,0c-0.2,0-0.8,0-1.8,0l-0.8,0c-0.3,0-0.4-0.1-0.4-0.2c0-0.1,0.2-0.2,0.5-0.3c0.3-0.1,0.5-0.2,0.6-0.3
			c0.1-0.1,0.2-0.6,0.2-1.5c0-0.8,0.1-1.9,0.1-3.1c0-1.2-0.1-1.9-0.2-2.2s-0.4-0.5-0.7-0.5c-0.3-0.1-0.4-0.1-0.4-0.2
			c0-0.1,0.1-0.2,0.3-0.2l0.8,0C97.5,52.2,98,52.2,98.7,52.1z"/>
		<path fill="#ffffff" d="M114.8,47.1c0,1.4,0,3.3,0,5.6l-0.1,6.2c0,0.7,0.3,1.1,0.9,1.2c0.2,0,0.3,0.1,0.3,0.2c0,0.1,0,0.1-0.1,0.1s-0.5,0-1.3,0
			c-0.4,0-0.8,0-1.2,0c0-0.4,0-0.7,0-0.9c0-0.2,0-0.5,0-0.9c-0.4,0.7-0.8,1.1-1.2,1.5s-0.9,0.5-1.5,0.5c-0.8,0-1.6-0.4-2.4-1.1
			s-1.2-1.7-1.2-2.9c0-1.2,0.4-2.2,1.1-3.1s1.7-1.3,2.7-1.3c0.5,0,1,0.1,1.4,0.3s0.7,0.6,1,1c0-0.8,0.1-1.5,0.1-2.2
			c0-2.1-0.1-3.2-0.2-3.5s-0.3-0.4-0.7-0.4c-0.2,0-0.4-0.1-0.4-0.2c0-0.1,0.2-0.2,0.5-0.2L114.8,47.1z M113.5,55.9
			c0-1.1-0.2-1.9-0.6-2.5s-0.9-0.8-1.7-0.8c-0.8,0-1.4,0.3-1.8,1s-0.6,1.6-0.6,2.9c0,1.3,0.2,2.2,0.7,2.8s1,0.8,1.5,0.8
			s1.1-0.3,1.6-0.9S113.5,57.5,113.5,55.9z"/>
		<path fill="#ffffff" d="M126.4,54.3c0,0.3,0,0.7-0.1,1.3c0,0.3,0,0.6,0,0.9c0,0.2,0,0.7,0,1.4s0.1,1.2,0.1,1.4s0.2,0.4,0.4,0.5s0.5,0.3,0.7,0.3
			c0.3,0,0.4,0.1,0.4,0.2c0,0.1,0,0.1-0.1,0.2s-0.4,0-1,0l-2.7,0c-0.8,0-1.2,0-1.2,0s-0.1-0.1-0.1-0.1c0-0.1,0.1-0.2,0.4-0.2
			c0.4-0.1,0.7-0.3,0.9-0.5s0.3-0.7,0.3-1.3c0-0.7,0.1-1.5,0.1-2.4l0-2.6l0-2.8c0-1-0.1-1.6-0.2-1.9s-0.4-0.5-0.8-0.5
			c-0.4-0.1-0.6-0.2-0.6-0.3s0.1-0.2,0.3-0.2l1.9,0l3.1,0c2,0,3.4,0.3,4.1,1s1.1,1.4,1.1,2.4c0,1.1-0.5,2-1.4,2.6
			c-0.9,0.6-2.3,0.9-4.2,0.9C127.5,54.4,126.9,54.4,126.4,54.3z M126.4,53.9c1,0,1.5,0,1.6,0c0.7,0,1.3-0.1,1.9-0.3s1-0.6,1.3-1.2
			c0.3-0.6,0.4-1.2,0.4-1.8c0-0.7-0.2-1.4-0.7-1.9c-0.5-0.5-1.4-0.8-2.7-0.8c-0.7,0-1.3,0.1-1.8,0.2c0,0.2,0,0.4,0,0.4l0,2.2l0,2.4
			C126.3,53.4,126.3,53.6,126.4,53.9z"/>
		<path fill="#ffffff" d="M137.9,54.3c0.4-0.7,0.8-1.3,1.3-1.6c0.5-0.4,1-0.5,1.5-0.5c0.4,0,0.7,0.1,0.9,0.4s0.4,0.5,0.4,0.9c0,0.6-0.3,0.9-0.8,0.9
			c-0.2,0-0.5-0.2-0.6-0.5c-0.2-0.4-0.5-0.7-0.8-0.7c-0.3,0-0.7,0.2-1,0.5c-0.3,0.4-0.6,0.8-0.7,1.2s-0.2,1.3-0.2,2.7
			c0,1.3,0.1,2,0.2,2.2s0.4,0.3,0.8,0.4c0.1,0,0.2,0.1,0.2,0.1c0,0.1-0.2,0.2-0.5,0.2h-3.1c-0.2,0-0.3-0.1-0.3-0.2
			c0-0.1,0.1-0.2,0.4-0.2c0.4,0,0.7-0.2,0.8-0.4c0.1-0.2,0.1-1.1,0.1-2.5c0-2.1,0-3.4-0.1-3.8s-0.4-0.7-1-0.7
			c-0.2,0-0.4-0.1-0.4-0.2c0-0.1,0-0.1,0.1-0.1s0.3-0.1,0.9-0.1l1.8-0.1C137.8,52.6,137.9,53.3,137.9,54.3z"/>
		<path fill="#ffffff" d="M143.3,56.4c0-1.1,0.4-2.2,1.2-3s1.8-1.3,3-1.3c1.1,0,2.1,0.4,2.9,1.2s1.2,1.8,1.2,2.9c0,1.2-0.4,2.2-1.3,3.1
			s-1.9,1.3-3,1.3c-1.1,0-2.1-0.4-2.9-1.2S143.3,57.6,143.3,56.4z M144.8,56.4c0,1.1,0.3,2,0.8,2.8s1.2,1.1,1.9,1.1
			c0.7,0,1.3-0.3,1.8-1s0.8-1.6,0.8-2.8c0-1-0.3-1.9-0.8-2.7s-1.2-1.2-2-1.2c-0.8,0-1.4,0.4-1.9,1.1S144.8,55.3,144.8,56.4z"/>
		<path fill="#ffffff" d="M153.2,56.6c0-1.2,0.4-2.2,1.1-3.1s1.7-1.3,2.8-1.3c0.7,0,1.4,0.2,2,0.5s1,0.8,1,1.3c0,0.2-0.1,0.4-0.2,0.5
			s-0.3,0.2-0.4,0.2c-0.4,0-0.6-0.3-0.8-0.9c-0.3-0.9-0.8-1.3-1.6-1.3c-0.7,0-1.3,0.3-1.7,1c-0.4,0.6-0.6,1.5-0.6,2.5
			c0,1.2,0.3,2.2,0.8,3s1.2,1.2,2,1.2c0.5,0,1-0.2,1.5-0.6c0.5-0.4,0.7-0.9,0.8-1.4c0-0.2,0.1-0.3,0.2-0.3c0.1,0,0.2,0.1,0.2,0.2
			c0,0.6-0.3,1.2-0.9,1.8s-1.4,0.8-2.4,0.8c-1.1,0-2-0.4-2.7-1.2S153.2,57.6,153.2,56.6z"/>
		<path fill="#ffffff" d="M163.4,55.9c0,0.3,0,0.6,0,0.8c0,0.9,0.3,1.7,0.8,2.3c0.5,0.6,1.2,1,2,1c0.8,0,1.5-0.3,2.2-0.9c0.2-0.2,0.3-0.3,0.4-0.3
			c0.1,0,0.2,0.1,0.2,0.3c-0.2,0.5-0.7,0.8-1.3,1.2s-1.3,0.5-2,0.5c-1.1,0-2-0.4-2.7-1.2c-0.7-0.8-1.1-1.8-1.1-3
			c0-1.3,0.4-2.3,1.2-3.2s1.7-1.3,2.6-1.3c0.9,0,1.7,0.3,2.4,1s1.1,1.5,1.1,2.3c0,0.1,0,0.2-0.1,0.3s-0.3,0.1-0.7,0.1L163.4,55.9z
			 M163.4,55.4c0.8,0,1.7,0.1,2.5,0.1l0.5,0c0.4,0,0.7-0.1,0.9-0.2c0.2-0.1,0.3-0.4,0.3-0.7c0-0.5-0.2-1-0.6-1.4
			c-0.4-0.4-0.8-0.6-1.3-0.6c-0.5,0-0.9,0.2-1.4,0.7C163.8,53.6,163.5,54.4,163.4,55.4z"/>
		<path fill="#ffffff" d="M176.7,57.9c0,0.8-0.3,1.4-0.8,1.9c-0.6,0.5-1.2,0.8-2,0.8c-0.5,0-1-0.1-1.6-0.4c-0.3-0.2-0.5-0.2-0.6-0.2
			c-0.1,0-0.2,0.1-0.3,0.2c-0.1,0.2-0.2,0.3-0.3,0.3c-0.1,0-0.1-0.1-0.1-0.3c0-0.2,0-0.6,0-1.3c0-0.6,0-0.9,0-1.1
			c0-0.2,0.1-0.4,0.2-0.4c0.1,0,0.1,0.1,0.2,0.2c0.3,0.7,0.6,1.4,1.1,1.9s1,0.8,1.6,0.8c0.4,0,0.8-0.1,1.2-0.4
			c0.3-0.3,0.5-0.6,0.5-1.1c0-0.7-0.6-1.4-1.9-1.9c-0.9-0.4-1.4-0.7-1.7-0.8c-0.3-0.2-0.5-0.4-0.7-0.7c-0.2-0.3-0.2-0.6-0.2-1
			c0-0.7,0.3-1.2,0.8-1.7c0.5-0.5,1.1-0.7,1.8-0.7c0.5,0,1.1,0.2,1.8,0.5c0.1,0.1,0.2,0.1,0.3,0.1c0.1,0,0.1-0.1,0.2-0.2
			c0.1-0.1,0.1-0.2,0.2-0.2c0.1,0,0.1,0,0.1,0.1c0,0,0.1,0.3,0.1,0.9c0,0.5,0.1,1,0.1,1.3c0,0.2-0.1,0.3-0.2,0.3
			c-0.1,0-0.2-0.1-0.2-0.3c-0.1-0.2-0.2-0.5-0.5-1c-0.3-0.5-0.5-0.8-0.9-0.9c-0.3-0.1-0.6-0.2-0.9-0.2c-0.5,0-0.9,0.1-1.2,0.3
			s-0.4,0.5-0.4,0.9c0,0.2,0.1,0.4,0.2,0.6c0.1,0.2,0.2,0.3,0.3,0.4s0.7,0.4,1.9,0.9c0.7,0.3,1.2,0.6,1.4,0.7
			c0.2,0.2,0.4,0.4,0.6,0.7C176.7,57.3,176.7,57.6,176.7,57.9z"/>
		<path fill="#ffffff" d="M184.8,57.9c0,0.8-0.3,1.4-0.8,1.9c-0.6,0.5-1.2,0.8-2,0.8c-0.5,0-1-0.1-1.6-0.4c-0.3-0.2-0.5-0.2-0.6-0.2
			c-0.1,0-0.2,0.1-0.3,0.2c-0.1,0.2-0.2,0.3-0.3,0.3c-0.1,0-0.1-0.1-0.1-0.3c0-0.2,0-0.6,0-1.3c0-0.6,0-0.9,0-1.1
			c0-0.2,0.1-0.4,0.2-0.4c0.1,0,0.1,0.1,0.2,0.2c0.3,0.7,0.6,1.4,1.1,1.9s1,0.8,1.6,0.8c0.4,0,0.8-0.1,1.2-0.4
			c0.3-0.3,0.5-0.6,0.5-1.1c0-0.7-0.6-1.4-1.9-1.9c-0.9-0.4-1.4-0.7-1.7-0.8c-0.3-0.2-0.5-0.4-0.7-0.7c-0.2-0.3-0.2-0.6-0.2-1
			c0-0.7,0.3-1.2,0.8-1.7c0.5-0.5,1.1-0.7,1.8-0.7c0.5,0,1.1,0.2,1.8,0.5c0.1,0.1,0.2,0.1,0.3,0.1c0.1,0,0.1-0.1,0.2-0.2
			c0.1-0.1,0.1-0.2,0.2-0.2c0.1,0,0.1,0,0.1,0.1c0,0,0.1,0.3,0.1,0.9c0,0.5,0.1,1,0.1,1.3c0,0.2-0.1,0.3-0.2,0.3
			c-0.1,0-0.2-0.1-0.2-0.3c-0.1-0.2-0.2-0.5-0.5-1c-0.3-0.5-0.5-0.8-0.9-0.9c-0.3-0.1-0.6-0.2-0.9-0.2c-0.5,0-0.9,0.1-1.2,0.3
			s-0.4,0.5-0.4,0.9c0,0.2,0.1,0.4,0.2,0.6c0.1,0.2,0.2,0.3,0.3,0.4s0.7,0.4,1.9,0.9c0.7,0.3,1.2,0.6,1.4,0.7
			c0.2,0.2,0.4,0.4,0.6,0.7C184.8,57.3,184.8,57.6,184.8,57.9z"/>
		<path fill="#ffffff" d="M198.9,48.4c0.2-0.2,0.3-0.4,0.4-0.5c0.1-0.2,0.1-0.2,0.2-0.2c0.1,0,0.1,0,0.2,0.1c0,0.2,0.1,0.7,0.2,1.4l0.2,1.8
			c0,0.1-0.1,0.2-0.2,0.2c-0.1,0-0.1-0.1-0.2-0.2c-0.3-0.9-0.9-1.6-1.5-2.1c-0.7-0.6-1.4-0.8-2.2-0.8c-0.8,0-1.4,0.2-1.8,0.7
			s-0.6,1-0.6,1.5c0,0.7,0.2,1.1,0.7,1.5s1.3,0.7,2.7,1.2c1,0.3,1.8,0.6,2.3,0.9s0.9,0.7,1.3,1.2s0.5,1.1,0.5,1.7
			c0,1-0.4,1.9-1.3,2.8s-1.9,1.2-3.1,1.2c-1.1,0-2.2-0.3-3.4-1c-0.2,0.2-0.4,0.4-0.4,0.6c-0.1,0.2-0.1,0.3-0.3,0.3
			c-0.1,0-0.2-0.1-0.2-0.4s-0.1-1.5-0.3-3.8c0-0.1,0.1-0.1,0.2-0.1c0.1,0,0.2,0.1,0.2,0.2c1,2.5,2.4,3.8,4.2,3.8
			c0.9,0,1.6-0.3,2.1-0.8s0.8-1.2,0.8-1.9c0-0.5-0.1-0.9-0.4-1.3s-0.6-0.7-1.1-1s-1.2-0.5-2.1-0.8c-1.2-0.4-2.1-0.8-2.5-1.1
			s-0.8-0.8-1-1.2s-0.3-0.9-0.3-1.3c0-0.9,0.4-1.6,1.2-2.3s1.7-1,2.9-1c0.4,0,0.9,0.1,1.4,0.2S198.4,48.1,198.9,48.4z"/>
		<path fill="#ffffff" d="M205.2,52.1l0,2.2l0,2.1v1.5l0,1.2c0,0.5,0.1,0.8,0.2,0.9s0.4,0.2,0.7,0.2c0.4,0,0.5,0.1,0.5,0.2c0,0.1-0.1,0.2-0.2,0.2
			c-0.1,0-0.1,0-0.2,0c-0.6-0.1-1.2-0.1-1.7-0.1c-0.8,0-1.4,0-1.7,0.1c-0.1,0-0.1,0-0.2,0c-0.2,0-0.2-0.1-0.2-0.2s0.2-0.2,0.5-0.2
			s0.6-0.1,0.7-0.2s0.2-0.4,0.2-1l0.1-4c0-1.1-0.1-1.7-0.2-1.9s-0.5-0.3-0.9-0.3c-0.2,0-0.2-0.1-0.2-0.2c0-0.1,0-0.1,0.1-0.1
			s0.4-0.1,1.2-0.1S204.9,52.1,205.2,52.1z M204.1,47.3c0.2,0,0.5,0.1,0.7,0.3s0.3,0.4,0.3,0.6c0,0.3-0.1,0.5-0.2,0.7
			s-0.4,0.3-0.7,0.3c-0.2,0-0.5-0.1-0.7-0.2s-0.3-0.4-0.3-0.6c0-0.3,0.1-0.5,0.2-0.7S203.8,47.3,204.1,47.3z"/>
		<path fill="#ffffff" d="M210.5,52.1c0.1,0.2,0.1,0.5,0.1,0.7c0,0.3,0,0.6,0,0.9c0.5-0.5,1-0.9,1.5-1.2s1-0.4,1.5-0.4c0.5,0,0.9,0.1,1.3,0.3
			s0.8,0.6,1.1,1c0.5-0.5,0.9-0.8,1.4-1s0.9-0.3,1.4-0.3c0.6,0,1.2,0.1,1.6,0.4c0.4,0.3,0.7,0.5,0.8,0.9c0.1,0.3,0.2,0.9,0.2,1.7
			l0,3.7c0,0.5,0.1,0.9,0.2,1.1c0.1,0.2,0.3,0.3,0.7,0.3c0.2,0,0.3,0.1,0.3,0.2c0,0.1-0.2,0.2-0.5,0.2h-3c-0.3,0-0.4-0.1-0.4-0.2
			c0-0.1,0.1-0.2,0.3-0.2c0.5,0,0.9-0.1,1-0.4s0.2-1.4,0.2-3.5c0-1,0-1.7-0.1-2.2s-0.3-0.8-0.5-1.1s-0.6-0.4-1-0.4
			c-0.4,0-0.7,0.1-1,0.3s-0.7,0.5-1,1c-0.3,0.9-0.4,2.4-0.4,4.5c0,0.8,0.1,1.2,0.2,1.4c0.1,0.2,0.4,0.3,0.8,0.3h0.2
			c0.2,0,0.3,0.1,0.3,0.2c0,0.1-0.1,0.2-0.4,0.2h-3.3c-0.3,0-0.5-0.1-0.5-0.2s0.1-0.2,0.3-0.2c0.4,0,0.7-0.1,0.8-0.2
			s0.2-0.6,0.3-1.4s0.1-1.6,0.1-2.3c0-1.4-0.1-2.3-0.4-2.7s-0.7-0.7-1.2-0.7c-0.4,0-0.9,0.2-1.3,0.5s-0.7,0.8-0.9,1.4
			s-0.2,1.7-0.2,3.2c0,1.1,0.1,1.7,0.2,2s0.4,0.4,0.8,0.4c0.2,0,0.3,0,0.3,0s0.1,0.1,0.1,0.2c0,0.1-0.1,0.2-0.4,0.2h-3
			c-0.4,0-0.5-0.1-0.5-0.2c0-0.1,0.1-0.2,0.2-0.2c0.4,0,0.6-0.1,0.7-0.2c0.1-0.1,0.2-0.5,0.3-1.1s0.1-1.6,0.1-2.9s0-2.1,0-2.4
			c0-0.3-0.1-0.5-0.3-0.7s-0.5-0.3-0.9-0.3c-0.2,0-0.3-0.1-0.3-0.2c0-0.1,0-0.1,0.1-0.1c0,0,0.3-0.1,0.9-0.1s1-0.1,1.4-0.1
			C210.1,52.1,210.3,52.1,210.5,52.1z"/>
		<path fill="#ffffff" d="M226,52.3c0,0.4,0.1,1.6,0.1,3.7c0,1.3,0,2.1,0.1,2.5s0.2,0.8,0.5,1s0.6,0.4,1,0.4c0.5,0,0.9-0.2,1.4-0.7s0.8-0.9,0.9-1.4
			s0.2-1.6,0.2-3.4c0-0.8-0.1-1.3-0.2-1.5s-0.4-0.3-0.8-0.3c-0.1,0-0.2-0.1-0.2-0.2c0-0.1,0-0.1,0.1-0.1s0.2,0,0.4,0h2
			c0.1,0.7,0.1,1.5,0.1,2.4l-0.1,3.7c0,0.8,0.1,1.2,0.2,1.4s0.3,0.3,0.6,0.3c0.2,0,0.3,0.1,0.3,0.2c0,0.1-0.2,0.2-0.5,0.2h-1.5
			c-0.3,0-0.4-0.1-0.4-0.3c0-0.1,0-0.1,0-0.2c0-0.2,0-0.4,0-0.6c0-0.2,0-0.4,0-0.7c-0.5,0.6-1,1.1-1.5,1.4s-1.1,0.5-1.7,0.5
			c-0.5,0-0.9-0.1-1.2-0.4s-0.6-0.5-0.7-0.9s-0.2-1.2-0.2-2.6s-0.1-2.4-0.1-3.2c0-0.4,0-0.7-0.1-0.8s-0.2-0.2-0.4-0.2
			c-0.3,0-0.4-0.1-0.4-0.2s0.2-0.2,0.5-0.2H226z"/>
		<path fill="#ffffff" d="M236.8,47.1c0,0.8,0,1.6,0,2.5l0,6.1l0,2.9c0,0.6,0.1,1,0.2,1.2c0.2,0.2,0.5,0.4,1,0.4c0.2,0,0.3,0.1,0.3,0.2
			c0,0.1-0.1,0.2-0.3,0.2c0,0-0.1,0-0.2,0c-0.7-0.1-1.5-0.1-2.4-0.1c-0.6,0-1,0-1.4,0.1c-0.1,0-0.1,0-0.2,0c-0.2,0-0.3-0.1-0.3-0.2
			c0-0.1,0.1-0.2,0.3-0.2c0.6,0,1-0.2,1.2-0.5s0.3-0.9,0.3-1.7l0-5.6c0-1.8,0-2.9-0.1-3.2s-0.2-0.6-0.4-0.9s-0.5-0.4-1-0.4
			c-0.3,0-0.4-0.1-0.4-0.2c0-0.1,0.1-0.2,0.3-0.2c1.2-0.1,2.1-0.2,2.7-0.4H236.8z"/>
		<path fill="#ffffff" d="M244.8,59.3c-0.3,0.5-0.7,0.8-1.1,1c-0.4,0.2-0.9,0.3-1.5,0.3c-0.7,0-1.2-0.2-1.5-0.5c-0.4-0.4-0.6-0.8-0.6-1.4
			c0-0.4,0.1-0.8,0.3-1.2s0.5-0.6,0.8-0.8c0.3-0.2,0.8-0.4,1.5-0.6c1-0.3,1.7-0.6,1.9-0.9c0.2-0.2,0.3-0.5,0.3-0.9
			c0-0.6-0.1-1-0.4-1.4c-0.3-0.3-0.7-0.5-1.2-0.5c-0.4,0-0.7,0.1-0.9,0.3c-0.2,0.2-0.4,0.6-0.5,1.1c-0.1,0.6-0.4,0.9-0.8,0.9
			c-0.1,0-0.3-0.1-0.5-0.2s-0.3-0.4-0.3-0.6c0-0.5,0.3-0.9,0.8-1.3s1.3-0.5,2.2-0.5c0.7,0,1.3,0.1,1.8,0.3s0.7,0.5,0.8,0.7
			c0.1,0.3,0.2,0.8,0.2,1.6l-0.1,2.6c0,1,0.1,1.7,0.2,2.1c0.1,0.4,0.3,0.6,0.7,0.6c0.1,0,0.2,0,0.3,0l0.2,0c0.1,0,0.2,0.1,0.2,0.2
			c0,0.2-0.6,0.4-1.9,0.4c-0.4,0-0.6-0.1-0.7-0.3S244.8,59.8,244.8,59.3z M244.8,55.4c-0.2,0.3-0.6,0.6-1.3,0.9
			c-0.7,0.4-1.2,0.7-1.5,1c-0.3,0.3-0.4,0.7-0.4,1.2c0,0.4,0.1,0.8,0.4,1s0.5,0.4,0.9,0.4c0.4,0,0.7-0.1,1.1-0.3
			c0.3-0.2,0.6-0.5,0.7-0.9s0.2-0.9,0.2-1.6C244.9,56.7,244.9,56.1,244.8,55.4z"/>
		<path fill="#ffffff" d="M251.3,53c-0.1,1.4-0.1,2.9-0.1,4.2c0,1.1,0.1,1.8,0.4,2.1c0.3,0.3,0.6,0.5,1.1,0.5c0.3,0,0.7-0.1,1.1-0.4
			c0.1-0.1,0.2-0.1,0.3-0.1c0.1,0,0.1,0,0.1,0.1c0,0.2-0.2,0.4-0.7,0.7c-0.5,0.3-1,0.5-1.7,0.5c-0.7,0-1.2-0.2-1.5-0.7
			s-0.5-1.2-0.5-2.1c0-1,0.1-2.6,0.2-4.9c0,0-0.4,0-0.9-0.1l-0.6,0c-0.1,0-0.2-0.1-0.2-0.1c0-0.1,0.1-0.2,0.2-0.2
			c0.3-0.1,0.7-0.4,1.3-0.9s1-1.1,1.1-2c0-0.2,0.1-0.3,0.2-0.3s0.2,0.1,0.2,0.3c0,0.1,0,0.1,0,0.2c0,0.3,0,0.5,0,0.9l0,1.5l2.1,0
			c0.4,0,0.6,0,0.6,0.1c0,0.3-0.1,0.5-0.1,0.6C253.5,52.9,252.7,52.9,251.3,53z"/>
		<path fill="#ffffff" d="M258.1,52.1l0,2.2l0,2.1v1.5l0,1.2c0,0.5,0.1,0.8,0.2,0.9s0.4,0.2,0.7,0.2c0.4,0,0.5,0.1,0.5,0.2c0,0.1-0.1,0.2-0.2,0.2
			c-0.1,0-0.1,0-0.2,0c-0.6-0.1-1.2-0.1-1.7-0.1c-0.8,0-1.4,0-1.7,0.1c-0.1,0-0.1,0-0.2,0c-0.2,0-0.2-0.1-0.2-0.2s0.2-0.2,0.5-0.2
			s0.6-0.1,0.7-0.2s0.2-0.4,0.2-1l0.1-4c0-1.1-0.1-1.7-0.2-1.9s-0.5-0.3-0.9-0.3c-0.2,0-0.2-0.1-0.2-0.2c0-0.1,0-0.1,0.1-0.1
			s0.4-0.1,1.2-0.1S257.8,52.1,258.1,52.1z M257,47.3c0.2,0,0.5,0.1,0.7,0.3s0.3,0.4,0.3,0.6c0,0.3-0.1,0.5-0.2,0.7
			s-0.4,0.3-0.7,0.3c-0.2,0-0.5-0.1-0.7-0.2s-0.3-0.4-0.3-0.6c0-0.3,0.1-0.5,0.2-0.7S256.7,47.3,257,47.3z"/>
		<path fill="#ffffff" d="M260.7,56.4c0-1.1,0.4-2.2,1.2-3s1.8-1.3,3-1.3c1.1,0,2.1,0.4,2.9,1.2s1.2,1.8,1.2,2.9c0,1.2-0.4,2.2-1.3,3.1
			s-1.9,1.3-3,1.3c-1.1,0-2.1-0.4-2.9-1.2S260.7,57.6,260.7,56.4z M262.3,56.4c0,1.1,0.3,2,0.8,2.8s1.2,1.1,1.9,1.1
			c0.7,0,1.3-0.3,1.8-1s0.8-1.6,0.8-2.8c0-1-0.3-1.9-0.8-2.7s-1.2-1.2-2-1.2c-0.8,0-1.4,0.4-1.9,1.1S262.3,55.3,262.3,56.4z"/>
		<path fill="#ffffff" d="M273.1,52.1c0.2,0.4,0.3,1,0.3,1.9c0.4-0.6,0.9-1.1,1.3-1.4s1-0.5,1.6-0.5c0.4,0,0.9,0.1,1.3,0.2c0.4,0.2,0.7,0.5,1,0.9
			c0.2,0.4,0.3,1.1,0.3,2.1l-0.1,3.3c0,0.6,0.1,1,0.2,1.1s0.3,0.3,0.6,0.4c0.2,0.1,0.3,0.1,0.3,0.2c0,0.1-0.1,0.1-0.2,0.1
			c0,0-0.1,0-0.1,0c-0.3-0.1-0.7-0.1-1.3-0.1c-0.5,0-1.1,0-1.7,0.1c-0.2,0-0.4-0.1-0.4-0.2c0-0.1,0.1-0.1,0.2-0.2
			c0.4-0.1,0.6-0.2,0.7-0.2s0.2-0.2,0.2-0.3c0-0.1,0.1-0.6,0.1-1.4c0-0.8,0-1.5,0-2c0-1.4-0.2-2.3-0.5-2.7s-0.8-0.7-1.3-0.7
			c-0.8,0-1.4,0.4-1.9,1.2s-0.8,2.2-0.8,4.1c0,0.9,0.1,1.4,0.2,1.7s0.4,0.4,0.9,0.4c0.1,0,0.2,0.1,0.2,0.2c0,0.1-0.1,0.1-0.2,0.1
			l-0.5,0c-0.2,0-0.8,0-1.8,0l-0.8,0c-0.3,0-0.4-0.1-0.4-0.2c0-0.1,0.2-0.2,0.5-0.3c0.3-0.1,0.5-0.2,0.6-0.3
			c0.1-0.1,0.2-0.6,0.2-1.5c0-0.8,0.1-1.9,0.1-3.1c0-1.2-0.1-1.9-0.2-2.2s-0.4-0.5-0.7-0.5c-0.3-0.1-0.4-0.1-0.4-0.2
			c0-0.1,0.1-0.2,0.3-0.2l0.8,0C271.9,52.2,272.3,52.2,273.1,52.1z"/>
		<path fill="#ffffff" d="M296.9,48.5c0.4-0.3,0.6-0.5,0.6-0.6c0.1-0.2,0.2-0.2,0.3-0.2c0.1,0,0.2,0.1,0.2,0.4l0.2,3.4c0,0.2,0,0.3,0,0.4
			s-0.1,0.1-0.1,0.1c-0.1,0-0.2-0.1-0.3-0.4c-0.4-1-1-1.9-1.8-2.5c-0.8-0.7-1.6-1-2.5-1c-0.8,0-1.5,0.3-2.2,0.8s-1.2,1.2-1.5,2.2
			s-0.6,2-0.6,3.1c0,1.8,0.5,3.4,1.5,4.5c1,1.2,2.2,1.7,3.4,1.7c0.9,0,1.6-0.3,2.4-0.8c0.7-0.5,1.3-1.2,1.6-1.9
			c0.1-0.2,0.2-0.3,0.3-0.3c0.1,0,0.2,0.1,0.2,0.2c0,0.2-0.2,0.6-0.7,1.2s-1.1,1.2-1.9,1.6c-0.8,0.4-1.7,0.6-2.6,0.6
			c-1.1,0-2.1-0.3-3.1-0.8c-1-0.6-1.8-1.3-2.3-2.3s-0.9-2.1-0.9-3.4c0-1.3,0.3-2.5,0.8-3.5c0.6-1,1.3-1.8,2.4-2.4s2.1-0.9,3.1-0.9
			c0.6,0,1.2,0.1,1.8,0.3C295.6,47.9,296.2,48.2,296.9,48.5z"/>
		<path fill="#ffffff" d="M301.4,55.9c0,0.3,0,0.6,0,0.8c0,0.9,0.3,1.7,0.8,2.3s1.2,1,2,1c0.8,0,1.5-0.3,2.2-0.9c0.2-0.2,0.3-0.3,0.4-0.3
			c0.1,0,0.2,0.1,0.2,0.3c-0.2,0.5-0.7,0.8-1.3,1.2c-0.6,0.3-1.3,0.5-2,0.5c-1.1,0-2-0.4-2.7-1.2s-1.1-1.8-1.1-3
			c0-1.3,0.4-2.3,1.2-3.2s1.7-1.3,2.6-1.3c0.9,0,1.7,0.3,2.4,1s1.1,1.5,1.1,2.3c0,0.1,0,0.2-0.1,0.3c0,0.1-0.3,0.1-0.7,0.1
			L301.4,55.9z M301.4,55.4c0.8,0,1.7,0.1,2.5,0.1l0.5,0c0.4,0,0.7-0.1,0.9-0.2s0.3-0.4,0.3-0.7c0-0.5-0.2-1-0.6-1.4
			c-0.4-0.4-0.8-0.6-1.3-0.6c-0.5,0-0.9,0.2-1.4,0.7S301.5,54.4,301.4,55.4z"/>
		<path fill="#ffffff" d="M310.9,52.1c0.2,0.4,0.3,1,0.3,1.9c0.4-0.6,0.9-1.1,1.3-1.4s1-0.5,1.6-0.5c0.4,0,0.9,0.1,1.3,0.2c0.4,0.2,0.7,0.5,1,0.9
			c0.2,0.4,0.3,1.1,0.3,2.1l-0.1,3.3c0,0.6,0.1,1,0.2,1.1s0.3,0.3,0.6,0.4c0.2,0.1,0.3,0.1,0.3,0.2c0,0.1-0.1,0.1-0.2,0.1
			c0,0-0.1,0-0.1,0c-0.3-0.1-0.7-0.1-1.3-0.1c-0.5,0-1.1,0-1.7,0.1c-0.2,0-0.4-0.1-0.4-0.2c0-0.1,0.1-0.1,0.2-0.2
			c0.4-0.1,0.6-0.2,0.7-0.2s0.2-0.2,0.2-0.3c0-0.1,0.1-0.6,0.1-1.4c0-0.8,0-1.5,0-2c0-1.4-0.2-2.3-0.5-2.7s-0.8-0.7-1.3-0.7
			c-0.8,0-1.4,0.4-1.9,1.2s-0.8,2.2-0.8,4.1c0,0.9,0.1,1.4,0.2,1.7s0.4,0.4,0.9,0.4c0.1,0,0.2,0.1,0.2,0.2c0,0.1-0.1,0.1-0.2,0.1
			l-0.5,0c-0.2,0-0.8,0-1.8,0l-0.8,0c-0.3,0-0.4-0.1-0.4-0.2c0-0.1,0.2-0.2,0.5-0.3c0.3-0.1,0.5-0.2,0.6-0.3
			c0.1-0.1,0.2-0.6,0.2-1.5c0-0.8,0.1-1.9,0.1-3.1c0-1.2-0.1-1.9-0.2-2.2s-0.4-0.5-0.7-0.5c-0.3-0.1-0.4-0.1-0.4-0.2
			c0-0.1,0.1-0.2,0.3-0.2l0.8,0C309.7,52.2,310.1,52.2,310.9,52.1z"/>
		<path fill="#ffffff" d="M322.4,53c-0.1,1.4-0.1,2.9-0.1,4.2c0,1.1,0.1,1.8,0.4,2.1c0.3,0.3,0.6,0.5,1.1,0.5c0.3,0,0.7-0.1,1.1-0.4
			c0.1-0.1,0.2-0.1,0.3-0.1c0.1,0,0.1,0,0.1,0.1c0,0.2-0.2,0.4-0.7,0.7c-0.5,0.3-1,0.5-1.7,0.5c-0.7,0-1.2-0.2-1.5-0.7
			s-0.5-1.2-0.5-2.1c0-1,0.1-2.6,0.2-4.9c0,0-0.4,0-0.9-0.1l-0.6,0c-0.1,0-0.2-0.1-0.2-0.1c0-0.1,0.1-0.2,0.2-0.2
			c0.3-0.1,0.7-0.4,1.3-0.9s1-1.1,1.1-2c0-0.2,0.1-0.3,0.2-0.3s0.2,0.1,0.2,0.3c0,0.1,0,0.1,0,0.2c0,0.3,0,0.5,0,0.9l0,1.5l2.1,0
			c0.4,0,0.6,0,0.6,0.1c0,0.3-0.1,0.5-0.1,0.6C324.6,52.9,323.7,52.9,322.4,53z"/>
		<path fill="#ffffff" d="M328,55.9c0,0.3,0,0.6,0,0.8c0,0.9,0.3,1.7,0.8,2.3s1.2,1,2,1c0.8,0,1.5-0.3,2.2-0.9c0.2-0.2,0.3-0.3,0.4-0.3
			c0.1,0,0.2,0.1,0.2,0.3c-0.2,0.5-0.7,0.8-1.3,1.2c-0.6,0.3-1.3,0.5-2,0.5c-1.1,0-2-0.4-2.7-1.2s-1.1-1.8-1.1-3
			c0-1.3,0.4-2.3,1.2-3.2s1.7-1.3,2.6-1.3c0.9,0,1.7,0.3,2.4,1s1.1,1.5,1.1,2.3c0,0.1,0,0.2-0.1,0.3c0,0.1-0.3,0.1-0.7,0.1L328,55.9
			z M328,55.4c0.8,0,1.7,0.1,2.5,0.1l0.5,0c0.4,0,0.7-0.1,0.9-0.2s0.3-0.4,0.3-0.7c0-0.5-0.2-1-0.6-1.4c-0.4-0.4-0.8-0.6-1.3-0.6
			c-0.5,0-0.9,0.2-1.4,0.7S328.1,54.4,328,55.4z"/>
		<path fill="#ffffff" d="M337.8,54.3c0.4-0.7,0.8-1.3,1.3-1.6c0.5-0.4,1-0.5,1.5-0.5c0.4,0,0.7,0.1,0.9,0.4s0.4,0.5,0.4,0.9c0,0.6-0.3,0.9-0.8,0.9
			c-0.2,0-0.5-0.2-0.6-0.5c-0.2-0.4-0.5-0.7-0.8-0.7c-0.3,0-0.7,0.2-1,0.5c-0.3,0.4-0.6,0.8-0.7,1.2s-0.2,1.3-0.2,2.7
			c0,1.3,0.1,2,0.2,2.2s0.4,0.3,0.8,0.4c0.1,0,0.2,0.1,0.2,0.1c0,0.1-0.2,0.2-0.5,0.2h-3.1c-0.2,0-0.3-0.1-0.3-0.2
			c0-0.1,0.1-0.2,0.4-0.2c0.4,0,0.7-0.2,0.8-0.4c0.1-0.2,0.1-1.1,0.1-2.5c0-2.1,0-3.4-0.1-3.8s-0.4-0.7-1-0.7
			c-0.2,0-0.4-0.1-0.4-0.2c0-0.1,0-0.1,0.1-0.1s0.3-0.1,0.9-0.1l1.8-0.1C337.7,52.6,337.8,53.3,337.8,54.3z"/>
	</g>
</g>
</svg>
